<svg data-name="Layer 1" xmlns="http://www.w3.org/2000/svg" viewBox="0 0 36 36"><path fill="#e9df00" d="M10.02 22.64l-7.95-8.18 11.05-1.7 4.94-10.41 4.83 10.39 11.03 1.67-8.03 8.2 1.82 11.49-9.79-5.41-9.83 5.43 1.93-11.48z"/><path d="M18.05 4.7l3.71 8 .45 1 1.06.16 8.61 1.25-6.35 6.44-.71.72.16 1 1.42 9-7.52-4.19-1-.53-1 .53-7.53 4.16 1.51-8.93.16-1-.7-.73-6.25-6.42 8.61-1.33 1.05-.16.45-1 3.8-8m0-4.7l-5.62 11.85-12.45 1.92 9 9.21-2.19 13 11.16-6.12 11.13 6.13-2.06-13 9-9.23-12.38-1.9L18.07 0z"/></svg>