<svg id="Layer_1" data-name="Layer 1" xmlns="http://www.w3.org/2000/svg" viewBox="0 0 36 36"><defs><style>.cls-1{fill:#e9df00;}</style></defs><title>star_filled</title><polygon class="cls-1" points="10.02 22.64 2.07 14.46 13.12 12.76 18.06 2.35 22.89 12.74 33.92 14.41 25.89 22.61 27.71 34.1 17.92 28.69 8.09 34.12 10.02 22.64"/><path d="M-7.83,3.2l3.71,8,.45,1,1.06.16L6,13.61-.35,20.05l-.71.72.16,1,1.42,9L-7,26.58l-1-.53-1,.53-7.53,4.16,1.51-8.93.16-1-.7-.73-6.25-6.42,8.61-1.33,1.05-.16.45-1,3.8-8m0-4.7-5.62,11.85-12.45,1.92,9,9.21-2.19,13L-8,28.33,3.13,34.46l-2.06-13,9-9.23L-2.31,10.33-7.81-1.5Z" transform="translate(25.88 1.5)"/></svg>